<svg version="1" xmlns="http://www.w3.org/2000/svg" width="796" height="796" viewBox="0 0 597.000000 597.000000"><path d="M272 8.6c-36 4.3-68.1 12.9-96.7 25.7C97.5 69.1 35.7 140.4 11.9 223-2.7 273.7-3.6 329.9 9.5 379.5c18.3 70 54.9 124.1 113.3 167.7 21.4 16 48.4 30.6 71.5 38.7 6.8 2.4 10.6 3.1 16.1 3.1 6.6 0 7.5-.2 9.8-2.8 1.5-1.5 3.2-4 3.7-5.5 1.7-4.4 1.5-60.7-.2-60.7-.7 0-6.4.7-12.7 1.6-30.8 4.3-58-2.5-74.1-18.6-6-6-7.7-8.7-13.5-20.7-3.7-7.6-8.2-16.2-10.1-19.2-5-7.8-13.6-16.5-22.4-22.7-4.4-3.1-8.3-6.7-9.4-8.8-1.9-3.4-1.9-3.5 0-5.7 1.9-2 2.7-2.1 12.1-1.7 9 .4 11 .8 17.6 4 9.9 4.7 19 13.4 27.6 26.1 11.5 17.3 22.7 26.2 38.2 30.2 9.4 2.5 25.8 1.6 36.5-1.8 4.4-1.5 8.8-3.2 9.8-4 1.1-.7 2.9-5.1 4.3-10.1 2.9-10.4 6.1-17.1 11.5-24.3l3.9-5.2-3.7-1c-2.1-.5-11.3-2.5-20.4-4.5-21.1-4.6-29.7-7.3-43.5-14.1-37.6-18.3-58.5-50.3-64.8-99.3-2.1-15.9-2.1-39.2-.1-50.8 3.3-18.4 10.6-35.5 21.7-50.2 6.6-8.6 6.6-8.4 3.3-22.2-2.4-9.9-2.4-31.4-.1-42 2-9.1 5.5-20 7-21.9 1.7-2.2 18.2-.8 29.1 2.4 10.7 3.1 27.6 11.1 40 19 5 3.1 10.1 6.1 11.3 6.6 1.7.7 7.4-.1 19.5-2.5 23.1-4.7 34.6-5.9 57.7-5.8 21.4 0 38 1.7 58 5.9 6.9 1.4 13.6 2.5 15 2.4 1.3 0 8.3-3.4 15.5-7.5 27.1-15.3 38-19.9 52.3-21.6 6.1-.8 9.4-.8 11.8 0 3.1 1.1 3.6 1.8 5.9 9.2 6.1 19.3 7.1 43.1 2.6 59.8-1.1 4.1-2.1 8-2.1 8.6 0 .6 3 5.1 6.6 10 19.6 26.5 26.5 57 21.9 96.6-4.5 38.4-15.4 63.2-36.9 83.6-18.8 17.9-40.1 27.5-77.1 34.7-10.4 2.1-19.2 3.9-19.4 4.1-.2.2 1.3 2.2 3.4 4.6 4.7 5.5 10.8 18.3 13.1 27.3 1.5 6.1 1.7 13.8 2.1 58 .2 33.8.7 51.9 1.5 53.8 2 5.1 5.2 6.7 13.4 6.7 9.3 0 19.9-3.7 43.9-15.5 29.4-14.4 54.5-32.4 78-56 15.5-15.5 26.6-29.1 39.1-48 24.6-37.3 38.9-75.4 46-122.5 2.5-16.6 3-56.3 1-74-6.5-55.8-29-110.2-63.3-152.8-26.9-33.5-63.8-63.1-101.8-81.8-30-14.7-54.6-22.3-90.5-27.9-10.1-1.6-59-3-68-1.9z"/><path d="M106 431c-1 2-.9 2.6 1.4 4.8 2.5 2.5 2.7 2.6 4.3.9 1.7-1.6 1.6-1.9-1.4-4.8l-3.1-3.2-1.2 2.3zM118.3 443.6c-.3 1 .4 2.6 2 4.2 2.4 2.4 2.8 2.5 5.2 1.2 1.4-.7 2.5-1.6 2.5-1.9 0-.8-6.7-5.1-8-5.1-.6 0-1.3.7-1.7 1.6zM130 458.9c-.8 1.6-.5 2.6 1.6 5 3 3.6 4.4 3.8 6.7 1.3s2.2-2.5-2.1-5.6c-4.5-3.1-4.8-3.1-6.2-.7zM144 475.5c-2.9 3.5 2.5 10.4 6.9 9 1.2-.3 2.4-1.8 2.7-3.2 1.2-4.8-6.6-9.5-9.6-5.8zM164.7 488.7c-1.4 1.7-1.2 2.1 1.9 5.8l3.5 3.9 3.1-3.1c3-3.1 3.1-3.2 1.4-5.7-2-3.1-7.4-3.6-9.9-.9zM212.5 490.4l-3 2.4 2.9 3.1 3 3.1 3.8-3.7 3.8-3.8-2.2-1.7c-3.1-2.4-4.7-2.2-8.3.6zM190.2 492.3c-3.1 3.2-3.2 3.4-1.5 4.9 3.2 2.7 4.2 2.9 7.2 1.3 4.3-2.2 4.4-2.8.8-6.3l-3.3-3.2-3.2 3.3z"/></svg>